<?xml version="1.0" standalone="no"?>
<!DOCTYPE svg PUBLIC "-//W3C//DTD SVG 20010904//EN"
 "http://www.w3.org/TR/2001/REC-SVG-20010904/DTD/svg10.dtd">
<svg version="1.0" xmlns="http://www.w3.org/2000/svg"
 width="100%" height="100%" viewBox="0 750 2000 500"
 preserveAspectRatio="xMidYMid meet">
<g transform="translate(0.000000,2000.000000) scale(0.100000,-0.100000)" stroke="none">
<path fill="#000000" d="m-3974 -113 c85 -49 136 -136 120 -203 -38 -157 -274 -380 -424 -400 -69 -10 -163 56 -210 147 -8 14 -14 60 -14 105 -1 68 3 88 26 131 15 28 39 65 54 83 28 34 115 103 176 140 74 45 193 44 272 -3z" />
<path fill="#000000" d="m-3528 -148 c50 -17 67 -53 66 -139 -1 -140 -46 -197 -189 -243 -111 -35 -141 -39 -179 -23 -71 30 -94 118 -56 218 40 107 127 174 245 188 33 4 65 8 71 9 6 0 25 -4 42 -10z" />
<path fill="#000000" d="m-770 -1515 l0 -339 -37 -71 c-43 -84 -127 -181 -190 -217 -24 -15 -73 -32 -108 -39 -149 -28 -241 48 -278 230 -18 89 -13 96 63 88 90 -9 125 1 152 45 22 36 23 41 22 339 l-1 303 188 0 189 0 0 -339z" />
<path fill="#000000" d="m356 256 c13 -43 34 -132 48 -198 14 -66 40 -168 57 -227 96 -329 124 -512 108 -698 -15 -169 -103 -442 -187 -574 -34 -53 -205 -230 -223 -230 -5 0 -9 431 -9 1005 l0 1006 91 -3 92 -3 23 -78z" />
<path fill="#000000" d="m568 -147 c3 -8 -3 -25 -14 -37 -11 -12 -23 -34 -27 -49 -8 -33 -31 -37 -39 -6 -7 24 5 52 36 86 24 26 35 28 44 6z" />
<path fill="#000000" d="m1214 19 c50 -21 79 -51 109 -110 38 -73 35 -105 -19 -216 -40 -81 -59 -107 -119 -163 -89 -82 -178 -128 -253 -130 -45 -1 -61 4 -98 29 -93 66 -137 186 -108 295 26 96 154 239 255 286 61 29 174 33 233 9z" />
<path fill="#000000" d="m3941 -264 c11 -7 9 -19 -14 -65 -32 -65 -40 -73 -53 -50 -12 21 1 80 24 105 19 21 23 22 43 10z" />
<path fill="#000000" d="M9990 11316 c0 -30 51 -137 80 -166 10 -10 40 -22 67 -26 62 -9 98 -46 153 -156 53 -106 61 -116 72 -88 11 29 -27 222 -56 286 -14 29 -39 63 -60 79 -42 32 -162 83 -217 91 -37 6 -39 5 -39 -20z" />
<path fill="#000000" d="M10144 10476 c-2 -6 -3 -193 -2 -416 l3 -404 30 -15 c17 -8 55 -30 87 -48 31 -18 60 -33 65 -33 12 0 10 913 -2 916 -36 9 -177 9 -181 0z" />
<path fill="#D74143" d="M10932 10454 c-70 -23 -172 -80 -186 -103 -16 -26 -27 -8 -24 37 l3 47 -98 0 -99 0 1 -390 c0 -214 1 -393 1 -397 0 -8 164 -98 179 -98 8 0 11 65 11 213 0 243 10 301 67 410 43 81 105 148 187 203 48 32 68 39 121 42 93 6 163 -17 213 -72 49 -53 65 -105 63 -206 -2 -155 -43 -248 -168 -382 -46 -48 -83 -92 -83 -97 0 -5 46 -37 102 -72 l101 -62 31 38 c131 161 154 211 166 360 16 193 -24 335 -122 434 -110 110 -305 151 -466 95z" />
<path fill="#D74143" d="M13009 9274 c0 -5 -3 -22 -5 -38 -15 -88 48 -349 120 -495 44 -92 157 -209 240 -250 71 -35 200 -71 253 -71 49 0 172 29 215 51 61 31 138 149 98 149 -6 0 -25 -8 -43 -17 -26 -14 -60 -18 -188 -18 l-155 0 -85 42 c-58 29 -103 61 -148 105 -132 130 -199 239 -226 365 -20 95 -43 159 -61 174 -8 6 -14 8 -15 3z" />
<path fill="#D74143" d="M16190 11816 c-125 -44 -223 -106 -315 -201 -40 -41 -59 -74 -97 -166 -26 -63 -54 -139 -63 -169 -23 -76 -30 -246 -16 -365 7 -55 13 -109 14 -120 2 -20 -5 -20 -565 -25 l-567 -5 35 -45 c20 -25 40 -52 44 -60 7 -11 35 -16 122 -20 l113 -5 3 -190 c3 -214 -9 -368 -32 -413 -19 -38 -43 -43 -136 -33 -41 5 -79 5 -83 1 -16 -14 12 -161 40 -212 49 -90 88 -119 215 -162 181 -62 292 -60 428 9 25 12 55 26 68 29 l22 7 0 -550 c0 -311 -4 -560 -9 -574 -13 -34 -73 -55 -190 -66 -115 -11 -276 0 -360 25 -93 27 -187 82 -243 143 -121 131 -283 372 -352 522 -19 41 -51 104 -71 139 -73 128 -165 299 -165 306 0 4 44 4 99 1 87 -6 107 -4 169 16 84 27 105 45 140 112 24 45 27 65 32 200 4 83 6 265 6 407 l-1 256 -30 43 c-49 69 -176 121 -297 121 -57 0 -88 -18 -124 -72 -31 -46 -49 -43 -83 15 -11 19 -32 40 -46 45 -17 6 -732 10 -2010 10 l-1983 0 -6 78 c-20 250 -41 335 -126 504 -70 140 -135 236 -162 242 -42 9 -208 12 -208 4 0 -4 29 -52 65 -106 69 -106 166 -323 190 -425 8 -34 17 -115 21 -179 l7 -118 -516 0 -515 0 -7 78 c-15 189 -27 285 -40 322 -19 53 -110 233 -172 340 l-49 85 -119 6 c-66 4 -122 5 -124 3 -2 -2 4 -14 13 -26 148 -201 229 -357 250 -483 19 -107 35 -307 27 -317 -11 -13 -2688 -11 -2886 2 -99 7 -358 13 -575 14 -420 1 -461 -2 -680 -55 -181 -43 -496 -232 -595 -356 -176 -221 -241 -404 -201 -560 23 -91 51 -139 115 -200 190 -183 339 -197 551 -53 93 63 107 95 29 63 -107 -44 -327 -2 -414 78 -54 50 -98 151 -116 264 -13 90 -3 164 46 321 23 74 31 87 83 135 79 74 143 106 275 139 201 50 296 55 1067 55 388 0 767 -4 843 -9 l139 -8 -4 -332 c-5 -359 -7 -379 -64 -453 -47 -62 -159 -103 -282 -103 -125 0 -132 16 -82 170 17 50 30 97 30 104 0 7 -17 20 -37 29 -58 25 -147 57 -159 57 -5 0 -18 -32 -27 -71 -26 -107 -61 -171 -135 -247 -76 -78 -128 -102 -223 -102 -69 0 -104 12 -142 48 -54 51 -76 207 -42 289 35 82 134 193 284 315 11 10 18 24 15 32 -5 14 -154 137 -174 144 -13 5 -111 -74 -144 -116 -35 -46 -79 -142 -107 -234 -17 -55 -21 -88 -17 -156 3 -77 9 -97 46 -174 29 -59 55 -98 86 -124 57 -51 171 -94 267 -101 68 -5 85 -2 184 32 61 20 120 43 132 51 32 20 46 18 121 -20 137 -69 215 -80 328 -45 147 45 247 115 299 210 l30 54 3 361 c3 331 4 362 20 366 9 2 73 5 142 7 122 2 355 14 533 27 l87 7 0 -97 0 -96 -62 0 c-144 0 -290 -20 -350 -47 -94 -42 -171 -145 -153 -204 10 -29 63 -87 96 -105 16 -8 29 -18 29 -22 0 -4 -24 -16 -52 -26 -177 -62 -196 -256 -34 -351 22 -13 109 -41 191 -61 136 -34 162 -38 285 -37 105 0 154 4 220 21 126 32 220 59 226 64 2 3 3 72 2 154 l-3 149 -22 -35 c-48 -78 -195 -204 -287 -246 -107 -49 -326 -57 -419 -16 -112 50 -116 167 -7 226 49 27 190 56 271 56 53 0 54 2 38 48 -13 37 -18 39 -139 41 -52 1 -110 6 -128 12 -38 13 -65 57 -56 94 8 33 65 82 134 114 51 24 64 26 195 25 119 -1 148 -4 195 -22 30 -12 56 -22 58 -22 1 0 2 33 2 73 l0 73 -34 17 c-41 19 -49 46 -44 147 l3 65 598 3 c473 2 599 0 602 -10 3 -7 2 -105 -3 -217 l-7 -205 -38 62 c-66 107 -177 185 -305 214 -157 35 -361 -72 -439 -229 -26 -54 -28 -66 -28 -178 0 -113 2 -123 30 -178 35 -70 131 -178 189 -212 22 -13 77 -39 121 -57 99 -41 179 -43 268 -9 88 34 168 104 190 164 8 22 20 -2 19 -35 -3 -69 6 -85 61 -107 29 -12 69 -30 89 -41 73 -40 68 -80 68 510 l0 530 515 0 515 0 0 -222 -1 -223 -20 25 c-11 14 -47 60 -80 103 -33 43 -74 87 -92 98 -55 33 -139 60 -207 66 -57 5 -76 1 -146 -26 -108 -42 -153 -76 -213 -162 -105 -149 -114 -229 -41 -376 61 -123 160 -223 284 -283 114 -56 181 -63 283 -30 60 20 77 32 147 102 85 86 97 88 88 12 -5 -50 6 -69 46 -79 15 -3 55 -20 90 -37 34 -17 64 -29 66 -27 2 2 7 240 10 529 l7 525 1134 3 1135 2 0 -70 c0 -66 -1 -71 -26 -80 -14 -6 -53 -10 -87 -10 -71 0 -196 -32 -245 -62 -67 -41 -101 -166 -67 -250 9 -24 27 -56 39 -73 39 -52 39 -53 -6 -76 -61 -31 -90 -55 -115 -97 -29 -46 -29 -65 1 -127 32 -69 77 -109 185 -165 l91 -48 62 14 c33 8 93 25 132 38 239 80 273 89 336 89 120 1 200 -67 200 -168 -1 -107 -79 -199 -201 -236 -82 -25 -107 -19 -201 45 -244 166 -342 197 -513 161 -116 -25 -183 -64 -268 -158 -134 -149 -168 -211 -192 -360 -15 -96 -7 -96 58 2 27 40 84 110 128 156 76 79 84 84 185 124 123 48 249 81 314 81 62 0 158 -24 243 -61 174 -75 238 -93 329 -93 73 -1 91 2 115 20 54 40 66 75 65 184 -3 214 -74 390 -181 444 -117 60 -208 42 -517 -102 -166 -78 -192 -83 -234 -45 -18 15 -36 36 -41 45 -20 36 46 115 134 159 33 18 70 24 176 30 205 13 318 51 362 123 27 44 26 142 -2 207 -21 48 -21 50 -4 69 11 12 31 20 52 20 30 0 35 -4 57 -52 14 -29 27 -61 30 -70 8 -28 23 -21 55 25 16 24 36 49 45 56 48 40 -8 114 -111 146 -51 16 -58 16 -88 2 -18 -9 -49 -30 -70 -48 -57 -50 -69 -36 -75 92 -3 57 -2 108 1 112 4 5 272 11 595 14 419 3 584 1 572 -6 -9 -6 -19 -24 -23 -40 -3 -16 -14 -36 -24 -45 -29 -26 -143 -73 -265 -109 -260 -77 -437 -239 -453 -417 -5 -47 -1 -66 24 -120 37 -81 99 -159 157 -199 114 -79 324 -82 468 -7 l67 35 19 -42 c85 -188 102 -302 58 -408 -47 -115 -98 -155 -209 -165 -58 -6 -86 0 -161 31 -17 8 -17 6 -2 -22 36 -71 154 -133 251 -133 68 0 110 17 165 66 142 129 127 334 -44 583 -31 45 -56 92 -56 103 0 12 18 57 40 100 54 103 54 130 2 210 -54 84 -88 114 -140 128 -50 13 -88 -4 -117 -52 -24 -41 -15 -81 35 -164 22 -37 39 -74 38 -83 -5 -24 -96 -88 -168 -117 -46 -19 -83 -27 -125 -27 -140 1 -209 75 -184 197 15 72 48 123 122 192 96 90 174 137 320 194 137 53 245 108 278 141 23 23 19 47 -22 131 -27 57 -27 58 -6 54 12 -3 120 -5 239 -5 l217 -1 -5 -32 c-8 -64 16 -125 68 -174 57 -53 218 -131 218 -105 0 4 -23 29 -51 56 -68 67 -83 97 -75 153 12 88 72 182 116 182 10 0 25 -11 34 -25 15 -23 17 -64 14 -408 -3 -362 -5 -387 -27 -477 -30 -120 -52 -145 -137 -155 -32 -3 -70 -11 -82 -16 -23 -9 -22 -6 12 55 38 68 47 127 25 169 -48 94 -146 177 -206 177 -35 0 -83 -47 -83 -80 0 -37 41 -128 116 -256 41 -71 101 -176 132 -234 31 -58 80 -145 109 -193 29 -49 76 -135 103 -191 27 -57 76 -139 108 -182 72 -95 291 -347 324 -373 69 -55 297 -144 409 -162 69 -11 161 -8 275 8 39 5 44 4 44 -14 0 -28 -34 -68 -70 -83 -36 -15 -38 -27 -7 -39 12 -5 52 -23 89 -40 80 -37 119 -42 71 -8 -18 12 -33 25 -33 29 0 4 18 17 40 29 48 27 55 47 47 136 -5 62 -4 65 22 75 95 39 131 59 163 87 41 36 151 186 222 305 95 157 137 323 138 536 0 212 -32 371 -147 725 -75 235 -133 431 -141 486 l-7 39 37 0 c41 0 47 17 16 45 -12 10 -30 34 -42 53 -19 31 -21 49 -21 196 -1 219 22 311 116 470 62 104 123 165 220 218 102 57 170 76 282 79 47 2 85 6 85 11 0 17 -82 96 -114 112 -48 23 -130 20 -206 -8z" />
</g>
</svg>